<svg xmlns="http://www.w3.org/2000/svg" xmlns:xlink="http://www.w3.org/1999/xlink" width="375" viewBox="0 0 375 375" height="375" version="1.0"><defs><clipPath id="b"><path d="M 54.335938 54.335938 L 143.679688 54.335938 L 143.679688 143.679688 L 54.335938 143.679688 Z M 54.335938 54.335938"/></clipPath><clipPath id="c"><path d="M 98.726562 98.726562 L 188.070312 98.726562 L 188.070312 188.070312 L 98.726562 188.070312 Z M 98.726562 98.726562"/></clipPath><clipPath id="d"><path d="M 143.113281 143.113281 L 232.457031 143.113281 L 232.457031 232.457031 L 143.113281 232.457031 Z M 143.113281 143.113281"/></clipPath><clipPath id="e"><path d="M 187.5 187.5 L 276.84375 187.5 L 276.84375 276.84375 L 187.5 276.84375 Z M 187.5 187.5"/></clipPath><clipPath id="f"><path d="M 9.949219 143.113281 L 99.292969 143.113281 L 99.292969 232.457031 L 9.949219 232.457031 Z M 9.949219 143.113281"/></clipPath><clipPath id="g"><path d="M 54.335938 187.5 L 143.679688 187.5 L 143.679688 276.84375 L 54.335938 276.84375 Z M 54.335938 187.5"/></clipPath><clipPath id="h"><path d="M 98.726562 231.886719 L 188.070312 231.886719 L 188.070312 321.230469 L 98.726562 321.230469 Z M 98.726562 231.886719"/></clipPath><clipPath id="i"><path d="M 143.113281 9.949219 L 232.457031 9.949219 L 232.457031 99.292969 L 143.113281 99.292969 Z M 143.113281 9.949219"/></clipPath><clipPath id="j"><path d="M 187.5 54.335938 L 276.84375 54.335938 L 276.84375 143.679688 L 187.5 143.679688 Z M 187.5 54.335938"/></clipPath><clipPath id="k"><path d="M 231.886719 98.726562 L 321.230469 98.726562 L 321.230469 188.070312 L 231.886719 188.070312 Z M 231.886719 98.726562"/></clipPath><clipPath id="l"><path d="M 276.273438 143.113281 L 365.621094 143.113281 L 365.621094 232.457031 L 276.273438 232.457031 Z M 276.273438 143.113281"/></clipPath><clipPath id="m"><path d="M 231.886719 231.886719 L 321.230469 231.886719 L 321.230469 321.230469 L 231.886719 321.230469 Z M 231.886719 231.886719"/></clipPath><clipPath id="n"><path d="M 143.113281 276.273438 L 232.457031 276.273438 L 232.457031 365.621094 L 143.113281 365.621094 Z M 143.113281 276.273438"/></clipPath><clipPath id="q"><path d="M 1 0 L 127.558594 0 L 127.558594 126 L 1 126 Z M 1 0"/></clipPath><clipPath id="r"><path d="M 70.0625 0 L 127.070312 68.792969 L 58.28125 125.800781 L 1.273438 57.007812 Z M 70.0625 0"/></clipPath><clipPath id="s"><path d="M 70.0625 0 L 127.070312 68.792969 L 58.28125 125.800781 L 1.273438 57.007812 Z M 70.0625 0"/></clipPath><clipPath id="t"><path d="M 70.0625 0 L 127.09375 68.816406 L 58.273438 125.84375 L 1.246094 57.027344 Z M 70.0625 0"/></clipPath><clipPath id="p"><path d="M0 0H128V127H0z"/></clipPath><clipPath id="w"><path d="M 1 0.398438 L 127.800781 0.398438 L 127.800781 127 L 1 127 Z M 1 0.398438"/></clipPath><clipPath id="x"><path d="M 70.210938 0.5 L 127.21875 69.292969 L 58.425781 126.300781 L 1.417969 57.507812 Z M 70.210938 0.5"/></clipPath><clipPath id="y"><path d="M 70.210938 0.5 L 127.21875 69.292969 L 58.425781 126.300781 L 1.417969 57.507812 Z M 70.210938 0.5"/></clipPath><clipPath id="z"><path d="M 70.210938 0.5 L 127.238281 69.316406 L 58.421875 126.34375 L 1.390625 57.527344 Z M 70.210938 0.5"/></clipPath><clipPath id="v"><path d="M0 0H128V128H0z"/></clipPath><clipPath id="C"><path d="M 1 1 L 127.800781 1 L 127.800781 127 L 1 127 Z M 1 1"/></clipPath><clipPath id="D"><path d="M 70.355469 1 L 127.363281 69.792969 L 58.570312 126.800781 L 1.5625 58.007812 Z M 70.355469 1"/></clipPath><clipPath id="E"><path d="M 70.355469 1 L 127.363281 69.792969 L 58.570312 126.800781 L 1.5625 58.007812 Z M 70.355469 1"/></clipPath><clipPath id="F"><path d="M 70.355469 1 L 127.382812 69.816406 L 58.566406 126.84375 L 1.539062 58.027344 Z M 70.355469 1"/></clipPath><clipPath id="B"><path d="M0 0H128V128H0z"/></clipPath><clipPath id="I"><path d="M 0.078125 0.441406 L 127 0.441406 L 127 127 L 0.078125 127 Z M 0.078125 0.441406"/></clipPath><clipPath id="J"><path d="M 69.5 0.5 L 126.507812 69.292969 L 57.714844 126.300781 L 0.707031 57.507812 Z M 69.5 0.5"/></clipPath><clipPath id="K"><path d="M 69.5 0.5 L 126.507812 69.292969 L 57.714844 126.300781 L 0.707031 57.507812 Z M 69.5 0.5"/></clipPath><clipPath id="L"><path d="M 69.5 0.5 L 126.527344 69.316406 L 57.710938 126.34375 L 0.683594 57.527344 Z M 69.5 0.5"/></clipPath><clipPath id="H"><path d="M0 0H128V128H0z"/></clipPath><clipPath id="O"><path d="M 1 0.320312 L 127.839844 0.320312 L 127.839844 127 L 1 127 Z M 1 0.320312"/></clipPath><clipPath id="P"><path d="M 70.386719 0.46875 L 127.394531 69.261719 L 58.601562 126.269531 L 1.59375 57.476562 Z M 70.386719 0.46875"/></clipPath><clipPath id="Q"><path d="M 70.386719 0.46875 L 127.394531 69.261719 L 58.601562 126.269531 L 1.59375 57.476562 Z M 70.386719 0.46875"/></clipPath><clipPath id="R"><path d="M 70.386719 0.46875 L 127.414062 69.285156 L 58.597656 126.3125 L 1.570312 57.496094 Z M 70.386719 0.46875"/></clipPath><clipPath id="N"><path d="M0 0H128V128H0z"/></clipPath><clipPath id="U"><path d="M 0.121094 0.960938 L 127 0.960938 L 127 127 L 0.121094 127 Z M 0.121094 0.960938"/></clipPath><clipPath id="V"><path d="M 69.53125 0.96875 L 126.539062 69.761719 L 57.746094 126.769531 L 0.738281 57.976562 Z M 69.53125 0.96875"/></clipPath><clipPath id="W"><path d="M 69.53125 0.96875 L 126.539062 69.761719 L 57.746094 126.769531 L 0.738281 57.976562 Z M 69.53125 0.96875"/></clipPath><clipPath id="X"><path d="M 69.53125 0.96875 L 126.558594 69.785156 L 57.742188 126.8125 L 0.714844 57.996094 Z M 69.53125 0.96875"/></clipPath><clipPath id="T"><path d="M0 0H128V128H0z"/></clipPath><clipPath id="aa"><path d="M 0.359375 0.359375 L 127 0.359375 L 127 127 L 0.359375 127 Z M 0.359375 0.359375"/></clipPath><clipPath id="ab"><path d="M 69.675781 0.46875 L 126.683594 69.261719 L 57.890625 126.269531 L 0.882812 57.476562 Z M 69.675781 0.46875"/></clipPath><clipPath id="ac"><path d="M 69.675781 0.46875 L 126.683594 69.261719 L 57.890625 126.269531 L 0.882812 57.476562 Z M 69.675781 0.46875"/></clipPath><clipPath id="ad"><path d="M 69.675781 0.46875 L 126.703125 69.285156 L 57.886719 126.3125 L 0.859375 57.496094 Z M 69.675781 0.46875"/></clipPath><clipPath id="Z"><path d="M0 0H128V128H0z"/></clipPath><clipPath id="ag"><path d="M 1 1 L 127 1 L 127 127 L 1 127 Z M 1 1"/></clipPath><clipPath id="ah"><path d="M 69.886719 1.03125 L 126.894531 69.824219 L 58.101562 126.832031 L 1.09375 58.039062 Z M 69.886719 1.03125"/></clipPath><clipPath id="ai"><path d="M 69.886719 1.03125 L 126.894531 69.824219 L 58.101562 126.832031 L 1.09375 58.039062 Z M 69.886719 1.03125"/></clipPath><clipPath id="aj"><path d="M 69.886719 1.03125 L 126.914062 69.847656 L 58.097656 126.878906 L 1.070312 58.0625 Z M 69.886719 1.03125"/></clipPath><clipPath id="af"><path d="M0 0H128V128H0z"/></clipPath><clipPath id="am"><path d="M 1 0.480469 L 127.519531 0.480469 L 127.519531 127 L 1 127 Z M 1 0.480469"/></clipPath><clipPath id="an"><path d="M 70.03125 0.53125 L 127.039062 69.324219 L 58.246094 126.332031 L 1.238281 57.539062 Z M 70.03125 0.53125"/></clipPath><clipPath id="ao"><path d="M 70.03125 0.53125 L 127.039062 69.324219 L 58.246094 126.332031 L 1.238281 57.539062 Z M 70.03125 0.53125"/></clipPath><clipPath id="ap"><path d="M 70.03125 0.53125 L 127.058594 69.347656 L 58.242188 126.378906 L 1.214844 57.5625 Z M 70.03125 0.53125"/></clipPath><clipPath id="al"><path d="M0 0H128V128H0z"/></clipPath><clipPath id="as"><path d="M 1 1 L 127.761719 1 L 127.761719 127 L 1 127 Z M 1 1"/></clipPath><clipPath id="at"><path d="M 70.175781 1.03125 L 127.183594 69.824219 L 58.390625 126.832031 L 1.382812 58.039062 Z M 70.175781 1.03125"/></clipPath><clipPath id="au"><path d="M 70.175781 1.03125 L 127.183594 69.824219 L 58.390625 126.832031 L 1.382812 58.039062 Z M 70.175781 1.03125"/></clipPath><clipPath id="av"><path d="M 70.175781 1.03125 L 127.203125 69.847656 L 58.386719 126.878906 L 1.359375 58.0625 Z M 70.175781 1.03125"/></clipPath><clipPath id="ar"><path d="M0 0H128V128H0z"/></clipPath><clipPath id="ay"><path d="M 0.0390625 0.519531 L 126.761719 0.519531 L 126.761719 127 L 0.0390625 127 Z M 0.0390625 0.519531"/></clipPath><clipPath id="az"><path d="M 69.320312 0.53125 L 126.328125 69.324219 L 57.539062 126.332031 L 0.53125 57.539062 Z M 69.320312 0.53125"/></clipPath><clipPath id="aA"><path d="M 69.320312 0.53125 L 126.328125 69.324219 L 57.539062 126.332031 L 0.53125 57.539062 Z M 69.320312 0.53125"/></clipPath><clipPath id="aB"><path d="M 69.320312 0.53125 L 126.351562 69.347656 L 57.53125 126.378906 L 0.503906 57.5625 Z M 69.320312 0.53125"/></clipPath><clipPath id="ax"><path d="M0 0H127V128H0z"/></clipPath><clipPath id="aE"><path d="M 0.320312 1 L 127 1 L 127 126 L 0.320312 126 Z M 0.320312 1"/></clipPath><clipPath id="aF"><path d="M 69.644531 1 L 126.652344 69.792969 L 57.859375 126.800781 L 0.851562 58.007812 Z M 69.644531 1"/></clipPath><clipPath id="aG"><path d="M 69.644531 1 L 126.652344 69.792969 L 57.859375 126.800781 L 0.851562 58.007812 Z M 69.644531 1"/></clipPath><clipPath id="aH"><path d="M 69.644531 1 L 126.671875 69.816406 L 57.855469 126.84375 L 0.828125 58.027344 Z M 69.644531 1"/></clipPath><clipPath id="aD"><path d="M0 0H128V126H0z"/></clipPath><clipPath id="aK"><path d="M 1 0.761719 L 127 0.761719 L 127 127 L 1 127 Z M 1 0.761719"/></clipPath><clipPath id="aL"><path d="M 69.820312 0.96875 L 126.828125 69.761719 L 58.039062 126.769531 L 1.03125 57.976562 Z M 69.820312 0.96875"/></clipPath><clipPath id="aM"><path d="M 69.820312 0.96875 L 126.828125 69.761719 L 58.039062 126.769531 L 1.03125 57.976562 Z M 69.820312 0.96875"/></clipPath><clipPath id="aN"><path d="M 69.820312 0.96875 L 126.851562 69.785156 L 58.03125 126.8125 L 1.003906 57.996094 Z M 69.820312 0.96875"/></clipPath><clipPath id="aJ"><path d="M0 0H128V128H0z"/></clipPath><clipPath id="aQ"><path d="M 1.316406 1.316406 L 90.664062 1.316406 L 90.664062 90.664062 L 1.316406 90.664062 Z M 1.316406 1.316406"/></clipPath><clipPath id="aP"><path d="M0 0H91V91H0z"/></clipPath><clipPath id="aT"><path d="M 0.929688 0.929688 L 90.273438 0.929688 L 90.273438 90.273438 L 0.929688 90.273438 Z M 0.929688 0.929688"/></clipPath><clipPath id="aS"><path d="M0 0H91V91H0z"/></clipPath><clipPath id="aW"><path d="M 1.542969 1.542969 L 90.886719 1.542969 L 90.886719 90.886719 L 1.542969 90.886719 Z M 1.542969 1.542969"/></clipPath><clipPath id="aV"><path d="M0 0H92V92H0z"/></clipPath><clipPath id="aZ"><path d="M 1.15625 1.15625 L 90.5 1.15625 L 90.5 90.5 L 1.15625 90.5 Z M 1.15625 1.15625"/></clipPath><clipPath id="aY"><path d="M0 0H91V91H0z"/></clipPath><clipPath id="bc"><path d="M 0.707031 1.542969 L 90.050781 1.542969 L 90.050781 90.886719 L 0.707031 90.886719 Z M 0.707031 1.542969"/></clipPath><clipPath id="bb"><path d="M0 0H91V92H0z"/></clipPath><clipPath id="bf"><path d="M 1.316406 1.15625 L 90.664062 1.15625 L 90.664062 90.5 L 1.316406 90.5 Z M 1.316406 1.15625"/></clipPath><clipPath id="be"><path d="M0 0H91V91H0z"/></clipPath><clipPath id="bi"><path d="M 0.929688 0.765625 L 90.273438 0.765625 L 90.273438 90.113281 L 0.929688 90.113281 Z M 0.929688 0.765625"/></clipPath><clipPath id="bh"><path d="M0 0H91V91H0z"/></clipPath><clipPath id="bl"><path d="M 1.542969 0.707031 L 90.886719 0.707031 L 90.886719 90.050781 L 1.542969 90.050781 Z M 1.542969 0.707031"/></clipPath><clipPath id="bk"><path d="M0 0H92V91H0z"/></clipPath><clipPath id="bo"><path d="M 1.15625 1.316406 L 90.5 1.316406 L 90.5 90.664062 L 1.15625 90.664062 Z M 1.15625 1.316406"/></clipPath><clipPath id="bn"><path d="M0 0H91V91H0z"/></clipPath><clipPath id="br"><path d="M 0.769531 0.929688 L 90.113281 0.929688 L 90.113281 90.273438 L 0.769531 90.273438 Z M 0.769531 0.929688"/></clipPath><clipPath id="bq"><path d="M0 0H91V91H0z"/></clipPath><clipPath id="bu"><path d="M 1.378906 1.542969 L 90.722656 1.542969 L 90.722656 90.886719 L 1.378906 90.886719 Z M 1.378906 1.542969"/></clipPath><clipPath id="bt"><path d="M0 0H91V92H0z"/></clipPath><clipPath id="bx"><path d="M 0.769531 0.765625 L 90.113281 0.765625 L 90.113281 90.113281 L 0.769531 90.113281 Z M 0.769531 0.765625"/></clipPath><clipPath id="bw"><path d="M0 0H91V91H0z"/></clipPath><clipPath id="bA"><path d="M 1.542969 1.378906 L 90.886719 1.378906 L 90.886719 90.722656 L 1.542969 90.722656 Z M 1.542969 1.378906"/></clipPath><clipPath id="bz"><path d="M0 0H92V91H0z"/></clipPath><mask id="o"><g filter="url(#a)"><path fill-opacity=".6" d="M-37.5 -37.5H412.5V412.5H-37.5z"/></g></mask><mask id="u"><g filter="url(#a)"><path fill-opacity=".6" d="M-37.5 -37.5H412.5V412.5H-37.5z"/></g></mask><mask id="A"><g filter="url(#a)"><path fill-opacity=".6" d="M-37.5 -37.5H412.5V412.5H-37.5z"/></g></mask><mask id="G"><g filter="url(#a)"><path fill-opacity=".6" d="M-37.5 -37.5H412.5V412.5H-37.5z"/></g></mask><mask id="M"><g filter="url(#a)"><path fill-opacity=".6" d="M-37.5 -37.5H412.5V412.5H-37.5z"/></g></mask><mask id="S"><g filter="url(#a)"><path fill-opacity=".6" d="M-37.5 -37.5H412.5V412.5H-37.5z"/></g></mask><mask id="Y"><g filter="url(#a)"><path fill-opacity=".6" d="M-37.5 -37.5H412.5V412.5H-37.5z"/></g></mask><mask id="ae"><g filter="url(#a)"><path fill-opacity=".6" d="M-37.5 -37.5H412.5V412.5H-37.5z"/></g></mask><mask id="ak"><g filter="url(#a)"><path fill-opacity=".6" d="M-37.5 -37.5H412.5V412.5H-37.5z"/></g></mask><mask id="aq"><g filter="url(#a)"><path fill-opacity=".6" d="M-37.5 -37.5H412.5V412.5H-37.5z"/></g></mask><mask id="aw"><g filter="url(#a)"><path fill-opacity=".6" d="M-37.5 -37.5H412.5V412.5H-37.5z"/></g></mask><mask id="aC"><g filter="url(#a)"><path fill-opacity=".6" d="M-37.5 -37.5H412.5V412.5H-37.5z"/></g></mask><mask id="aI"><g filter="url(#a)"><path fill-opacity=".6" d="M-37.5 -37.5H412.5V412.5H-37.5z"/></g></mask><mask id="aO"><g filter="url(#a)"><path fill-opacity=".298" d="M-37.5 -37.5H412.5V412.5H-37.5z"/></g></mask><mask id="aR"><g filter="url(#a)"><path fill-opacity=".298" d="M-37.5 -37.5H412.5V412.5H-37.5z"/></g></mask><mask id="aU"><g filter="url(#a)"><path fill-opacity=".298" d="M-37.5 -37.5H412.5V412.5H-37.5z"/></g></mask><mask id="aX"><g filter="url(#a)"><path fill-opacity=".298" d="M-37.5 -37.5H412.5V412.5H-37.5z"/></g></mask><mask id="ba"><g filter="url(#a)"><path fill-opacity=".298" d="M-37.5 -37.5H412.5V412.5H-37.5z"/></g></mask><mask id="bd"><g filter="url(#a)"><path fill-opacity=".298" d="M-37.5 -37.5H412.5V412.5H-37.5z"/></g></mask><mask id="bg"><g filter="url(#a)"><path fill-opacity=".298" d="M-37.5 -37.5H412.5V412.5H-37.5z"/></g></mask><mask id="bj"><g filter="url(#a)"><path fill-opacity=".298" d="M-37.5 -37.5H412.5V412.5H-37.5z"/></g></mask><mask id="bm"><g filter="url(#a)"><path fill-opacity=".298" d="M-37.5 -37.5H412.5V412.5H-37.5z"/></g></mask><mask id="bp"><g filter="url(#a)"><path fill-opacity=".298" d="M-37.5 -37.5H412.5V412.5H-37.5z"/></g></mask><mask id="bs"><g filter="url(#a)"><path fill-opacity=".298" d="M-37.5 -37.5H412.5V412.5H-37.5z"/></g></mask><mask id="bv"><g filter="url(#a)"><path fill-opacity=".298" d="M-37.5 -37.5H412.5V412.5H-37.5z"/></g></mask><mask id="by"><g filter="url(#a)"><path fill-opacity=".298" d="M-37.5 -37.5H412.5V412.5H-37.5z"/></g></mask><filter x="0%" y="0%" width="100%" xmlns:xlink="http://www.w3.org/1999/xlink" xlink:type="simple" xlink:actuate="onLoad" height="100%" id="a" xlink:show="other"><feColorMatrix values="0 0 0 0 1 0 0 0 0 1 0 0 0 0 1 0 0 0 1 0" color-interpolation-filters="sRGB"/></filter></defs><g clip-path="url(#b)"><path fill="#FFF" d="M 54.335938 54.335938 L 54.335938 143.679688 L 143.679688 143.679688 L 143.679688 54.335938 Z M 54.335938 54.335938"/></g><g clip-path="url(#c)"><path fill="#FFF" d="M 98.726562 98.726562 L 98.726562 188.070312 L 188.070312 188.070312 L 188.070312 98.726562 Z M 98.726562 98.726562"/></g><g clip-path="url(#d)"><path fill="#FFF" d="M 143.113281 143.113281 L 143.113281 232.457031 L 232.457031 232.457031 L 232.457031 143.113281 Z M 143.113281 143.113281"/></g><g clip-path="url(#e)"><path fill="#FFF" d="M 187.5 187.5 L 187.5 276.84375 L 276.84375 276.84375 L 276.84375 187.5 Z M 187.5 187.5"/></g><g clip-path="url(#f)"><path fill="#FFF" d="M 9.949219 143.113281 L 9.949219 232.457031 L 99.292969 232.457031 L 99.292969 143.113281 Z M 9.949219 143.113281"/></g><g clip-path="url(#g)"><path fill="#FFF" d="M 54.335938 187.5 L 54.335938 276.84375 L 143.679688 276.84375 L 143.679688 187.5 Z M 54.335938 187.5"/></g><g clip-path="url(#h)"><path fill="#FFF" d="M 98.726562 231.886719 L 98.726562 321.230469 L 188.070312 321.230469 L 188.070312 231.886719 Z M 98.726562 231.886719"/></g><g clip-path="url(#i)"><path fill="#FFF" d="M 143.113281 9.949219 L 143.113281 99.292969 L 232.457031 99.292969 L 232.457031 9.949219 Z M 143.113281 9.949219"/></g><g clip-path="url(#j)"><path fill="#FFF" d="M 187.5 54.335938 L 187.5 143.679688 L 276.84375 143.679688 L 276.84375 54.335938 Z M 187.5 54.335938"/></g><g clip-path="url(#k)"><path fill="#FFF" d="M 231.886719 98.726562 L 231.886719 188.070312 L 321.230469 188.070312 L 321.230469 98.726562 Z M 231.886719 98.726562"/></g><g clip-path="url(#l)"><path fill="#FFF" d="M 276.273438 143.113281 L 276.273438 232.457031 L 365.621094 232.457031 L 365.621094 143.113281 Z M 276.273438 143.113281"/></g><g clip-path="url(#m)"><path fill="#FFF" d="M 231.886719 231.886719 L 231.886719 321.230469 L 321.230469 321.230469 L 321.230469 231.886719 Z M 231.886719 231.886719"/></g><g clip-path="url(#n)"><path fill="#FFF" d="M 143.113281 276.273438 L 143.113281 365.621094 L 232.457031 365.621094 L 232.457031 276.273438 Z M 143.113281 276.273438"/></g><g mask="url(#o)"><g><g clip-path="url(#p)" transform="translate(135)"><g clip-path="url(#q)"><g clip-path="url(#r)"><g clip-path="url(#s)"><g clip-path="url(#t)"><path fill="#FFF" d="M 75.855469 -61.804688 L -60.535156 51.21875 L 52.488281 187.605469 L 188.878906 74.582031 Z M 75.855469 -61.804688"/></g></g></g></g></g></g></g><g mask="url(#u)"><g><g clip-path="url(#v)" transform="translate(129 62)"><g clip-path="url(#w)"><g clip-path="url(#x)"><g clip-path="url(#y)"><g clip-path="url(#z)"><path fill="#FFF" d="M 76 -61.304688 L -60.390625 51.71875 L 52.632812 188.105469 L 189.023438 75.082031 Z M 76 -61.304688"/></g></g></g></g></g></g></g><g mask="url(#A)"><g><g clip-path="url(#B)" transform="translate(123 124)"><g clip-path="url(#C)"><g clip-path="url(#D)"><g clip-path="url(#E)"><g clip-path="url(#F)"><path fill="#FFF" d="M 76.144531 -60.804688 L -60.246094 52.21875 L 52.78125 188.605469 L 189.167969 75.582031 Z M 76.144531 -60.804688"/></g></g></g></g></g></g></g><g mask="url(#G)"><g><g clip-path="url(#H)" transform="translate(118 187)"><g clip-path="url(#I)"><g clip-path="url(#J)"><g clip-path="url(#K)"><g clip-path="url(#L)"><path fill="#FFF" d="M 75.289062 -61.304688 L -61.097656 51.71875 L 51.925781 188.105469 L 188.3125 75.082031 Z M 75.289062 -61.304688"/></g></g></g></g></g></g></g><g mask="url(#M)"><g><g clip-path="url(#N)" transform="translate(38 22)"><g clip-path="url(#O)"><g clip-path="url(#P)"><g clip-path="url(#Q)"><g clip-path="url(#R)"><path fill="#FFF" d="M 76.175781 -61.339844 L -60.210938 51.6875 L 52.8125 188.074219 L 189.199219 75.050781 Z M 76.175781 -61.339844"/></g></g></g></g></g></g></g><g mask="url(#S)"><g><g clip-path="url(#T)" transform="translate(33 84)"><g clip-path="url(#U)"><g clip-path="url(#V)"><g clip-path="url(#W)"><g clip-path="url(#X)"><path fill="#FFF" d="M 75.320312 -60.839844 L -61.066406 52.1875 L 51.957031 188.574219 L 188.347656 75.550781 Z M 75.320312 -60.839844"/></g></g></g></g></g></g></g><g mask="url(#Y)"><g><g clip-path="url(#Z)" transform="translate(27 147)"><g clip-path="url(#aa)"><g clip-path="url(#ab)"><g clip-path="url(#ac)"><g clip-path="url(#ad)"><path fill="#FFF" d="M 75.46875 -61.339844 L -60.921875 51.6875 L 52.101562 188.074219 L 188.492188 75.050781 Z M 75.46875 -61.339844"/></g></g></g></g></g></g></g><g mask="url(#ae)"><g><g clip-path="url(#af)" transform="translate(226 39)"><g clip-path="url(#ag)"><g clip-path="url(#ah)"><g clip-path="url(#ai)"><g clip-path="url(#aj)"><path fill="#FFF" d="M 75.675781 -60.773438 L -60.710938 52.25 L 52.3125 188.640625 L 188.699219 75.613281 Z M 75.675781 -60.773438"/></g></g></g></g></g></g></g><g mask="url(#ak)"><g><g clip-path="url(#al)" transform="translate(220 102)"><g clip-path="url(#am)"><g clip-path="url(#an)"><g clip-path="url(#ao)"><g clip-path="url(#ap)"><path fill="#FFF" d="M 75.820312 -61.273438 L -60.566406 51.75 L 52.457031 188.140625 L 188.847656 75.113281 Z M 75.820312 -61.273438"/></g></g></g></g></g></g></g><g mask="url(#aq)"><g><g clip-path="url(#ar)" transform="translate(214 164)"><g clip-path="url(#as)"><g clip-path="url(#at)"><g clip-path="url(#au)"><g clip-path="url(#av)"><path fill="#FFF" d="M 75.96875 -60.773438 L -60.421875 52.25 L 52.601562 188.640625 L 188.992188 75.613281 Z M 75.96875 -60.773438"/></g></g></g></g></g></g></g><g mask="url(#aw)"><g><g clip-path="url(#ax)" transform="translate(209 227)"><g clip-path="url(#ay)"><g clip-path="url(#az)"><g clip-path="url(#aA)"><g clip-path="url(#aB)"><path fill="#FFF" d="M 75.113281 -61.273438 L -61.277344 51.75 L 51.746094 188.140625 L 188.136719 75.113281 Z M 75.113281 -61.273438"/></g></g></g></g></g></g></g><g mask="url(#aC)"><g><g clip-path="url(#aD)" transform="translate(112 249)"><g clip-path="url(#aE)"><g clip-path="url(#aF)"><g clip-path="url(#aG)"><g clip-path="url(#aH)"><path fill="#FFF" d="M 75.433594 -60.804688 L -60.5625 51.890625 L 52.070312 187.804688 L 188.066406 75.109375 Z M 75.433594 -60.804688"/></g></g></g></g></g></g></g><g mask="url(#aI)"><g><g clip-path="url(#aJ)" transform="translate(21 209)"><g clip-path="url(#aK)"><g clip-path="url(#aL)"><g clip-path="url(#aM)"><g clip-path="url(#aN)"><path fill="#FFF" d="M 75.613281 -60.839844 L -60.777344 52.1875 L 52.246094 188.574219 L 188.636719 75.550781 Z M 75.613281 -60.839844"/></g></g></g></g></g></g></g><g mask="url(#aO)"><g><g clip-path="url(#aP)" transform="translate(230 230)"><g clip-path="url(#aQ)"><path fill="#FFF" d="M 90.664062 90.664062 L 90.664062 1.316406 L 1.316406 1.316406 L 1.316406 90.664062 Z M 90.664062 90.664062"/></g></g></g></g><g mask="url(#aR)"><g><g clip-path="url(#aS)" transform="translate(186 186)"><g clip-path="url(#aT)"><path fill="#FFF" d="M 90.273438 90.273438 L 90.273438 0.929688 L 0.929688 0.929688 L 0.929688 90.273438 Z M 90.273438 90.273438"/></g></g></g></g><g mask="url(#aU)"><g><g clip-path="url(#aV)" transform="translate(141 141)"><g clip-path="url(#aW)"><path fill="#FFF" d="M 90.886719 90.886719 L 90.886719 1.542969 L 1.542969 1.542969 L 1.542969 90.886719 Z M 90.886719 90.886719"/></g></g></g></g><g mask="url(#aX)"><g><g clip-path="url(#aY)" transform="translate(97 97)"><g clip-path="url(#aZ)"><path fill="#FFF" d="M 90.5 90.5 L 90.5 1.15625 L 1.15625 1.15625 L 1.15625 90.5 Z M 90.5 90.5"/></g></g></g></g><g mask="url(#ba)"><g><g clip-path="url(#bb)" transform="translate(275 141)"><g clip-path="url(#bc)"><path fill="#FFF" d="M 90.050781 90.886719 L 90.050781 1.542969 L 0.707031 1.542969 L 0.707031 90.886719 Z M 90.050781 90.886719"/></g></g></g></g><g mask="url(#bd)"><g><g clip-path="url(#be)" transform="translate(230 97)"><g clip-path="url(#bf)"><path fill="#FFF" d="M 90.664062 90.5 L 90.664062 1.15625 L 1.316406 1.15625 L 1.316406 90.5 Z M 90.664062 90.5"/></g></g></g></g><g mask="url(#bg)"><g><g clip-path="url(#bh)" transform="translate(186 53)"><g clip-path="url(#bi)"><path fill="#FFF" d="M 90.273438 90.113281 L 90.273438 0.765625 L 0.929688 0.765625 L 0.929688 90.113281 Z M 90.273438 90.113281"/></g></g></g></g><g mask="url(#bj)"><g><g clip-path="url(#bk)" transform="translate(141 275)"><g clip-path="url(#bl)"><path fill="#FFF" d="M 90.886719 90.050781 L 90.886719 0.707031 L 1.542969 0.707031 L 1.542969 90.050781 Z M 90.886719 90.050781"/></g></g></g></g><g mask="url(#bm)"><g><g clip-path="url(#bn)" transform="translate(97 230)"><g clip-path="url(#bo)"><path fill="#FFF" d="M 90.5 90.664062 L 90.5 1.316406 L 1.15625 1.316406 L 1.15625 90.664062 Z M 90.5 90.664062"/></g></g></g></g><g mask="url(#bp)"><g><g clip-path="url(#bq)" transform="translate(53 186)"><g clip-path="url(#br)"><path fill="#FFF" d="M 90.113281 90.273438 L 90.113281 0.929688 L 0.769531 0.929688 L 0.769531 90.273438 Z M 90.113281 90.273438"/></g></g></g></g><g mask="url(#bs)"><g><g clip-path="url(#bt)" transform="translate(8 141)"><g clip-path="url(#bu)"><path fill="#FFF" d="M 90.722656 90.886719 L 90.722656 1.542969 L 1.378906 1.542969 L 1.378906 90.886719 Z M 90.722656 90.886719"/></g></g></g></g><g mask="url(#bv)"><g><g clip-path="url(#bw)" transform="translate(53 53)"><g clip-path="url(#bx)"><path fill="#FFF" d="M 90.113281 90.113281 L 90.113281 0.765625 L 0.769531 0.765625 L 0.769531 90.113281 Z M 90.113281 90.113281"/></g></g></g></g><g mask="url(#by)"><g><g clip-path="url(#bz)" transform="translate(141 8)"><g clip-path="url(#bA)"><path fill="#FFF" d="M 90.886719 90.722656 L 90.886719 1.378906 L 1.542969 1.378906 L 1.542969 90.722656 Z M 90.886719 90.722656"/></g></g></g></g></svg>